<?xml version="1.0" standalone="no"?>
<!DOCTYPE svg PUBLIC "-//W3C//DTD SVG 20010904//EN"
 "http://www.w3.org/TR/2001/REC-SVG-20010904/DTD/svg10.dtd">
<svg version="1.0" xmlns="http://www.w3.org/2000/svg"
 width="890.000000pt" height="890.000000pt" viewBox="0 0 890.000000 890.000000"
 preserveAspectRatio="xMidYMid meet">
<metadata>
Created by potrace 1.14, written by Peter Selinger 2001-2017
</metadata>
<g transform="translate(0.000000,890.000000) scale(0.100000,-0.100000)"
fill="#000000" stroke="none">
<path d="M5841 8879 c-5 -13 -31 -90 -56 -171 -42 -137 -47 -147 -73 -152 -45
-9 -408 -66 -421 -66 -25 0 5 -23 197 -151 108 -73 198 -133 199 -134 2 -1 5
-89 8 -196 3 -107 8 -205 11 -218 l5 -24 22 21 c12 11 87 70 166 130 l144 110
175 -59 c97 -32 177 -57 179 -56 1 2 -27 77 -62 168 -36 90 -65 170 -65 177 0
7 36 66 80 132 44 66 80 124 80 130 0 5 -12 10 -27 11 -16 0 -37 2 -48 4 -11
2 -67 8 -125 15 -58 6 -112 14 -122 16 -9 3 -67 75 -129 162 -137 192 -126
180 -138 151z"/>
<path d="M6995 7860 l-57 -69 -91 5 c-51 3 -94 6 -97 6 -19 1 -14 -12 35 -90
l55 -88 -49 -115 c-27 -62 -48 -115 -46 -117 1 -2 53 13 115 33 125 41 104 45
190 -32 81 -73 105 -93 112 -93 3 0 4 57 2 128 l-5 127 82 58 c44 33 77 62 73
67 -5 4 -50 22 -100 40 l-91 32 -28 89 c-16 49 -32 89 -36 89 -4 0 -32 -31
-64 -70z"/>
<path d="M6698 6848 l-46 -50 -71 15 c-39 8 -71 11 -71 7 0 -4 14 -34 31 -68
l31 -60 -37 -67 -37 -68 44 7 c23 4 57 9 74 12 27 5 37 0 79 -45 27 -28 52
-51 56 -51 4 0 10 32 14 70 l7 71 66 33 65 33 -58 31 c-32 18 -62 32 -66 32
-3 0 -10 28 -13 63 -4 34 -10 68 -14 74 -5 7 -24 -6 -54 -39z"/>
<path d="M2935 6533 c-37 -142 -78 -296 -91 -343 -12 -47 -56 -211 -97 -365
-42 -154 -84 -314 -96 -355 -27 -103 -688 -2575 -771 -2890 -202 -757 -293
-1095 -298 -1108 -4 -12 25 -13 194 -7 109 4 217 9 239 10 22 2 128 7 235 10
107 4 196 9 198 10 4 4 62 205 330 1150 116 407 266 935 333 1172 68 238 126
430 130 425 3 -4 45 -106 93 -227 48 -121 94 -233 101 -250 7 -16 50 -122 95
-235 45 -113 215 -536 378 -940 613 -1524 545 -1362 554 -1339 3 8 112 280
243 604 130 325 325 808 432 1075 106 267 198 494 203 505 6 11 33 79 61 150
28 72 57 144 64 160 8 17 55 134 105 260 51 127 94 234 97 239 5 7 64 -187
128 -419 7 -27 46 -162 85 -300 40 -137 76 -263 80 -280 8 -31 55 -198 89
-315 11 -36 106 -371 212 -745 105 -374 195 -683 198 -687 3 -3 94 -9 201 -13
107 -4 211 -8 230 -10 19 -2 124 -6 233 -10 169 -6 197 -5 197 8 0 8 -93 360
-206 783 -113 423 -208 778 -211 789 -12 47 -410 1540 -481 1805 -11 41 -32
118 -46 170 -103 392 -371 1395 -395 1480 -16 58 -40 147 -52 198 -13 50 -26
92 -30 92 -3 0 -41 -87 -84 -192 -43 -106 -95 -233 -116 -283 -21 -49 -144
-351 -274 -670 -130 -319 -240 -589 -245 -600 -6 -11 -63 -150 -128 -310 -619
-1514 -595 -1457 -608 -1433 -9 18 -903 2198 -1194 2913 -181 444 -236 575
-241 575 -3 0 -36 -116 -74 -257z"/>
<path d="M1201 642 c-13 -48 -32 -118 -42 -157 -39 -141 -119 -446 -119 -451
0 -3 26 -4 57 -2 l58 3 50 177 c27 98 52 175 55 172 3 -3 39 -91 81 -195 l75
-190 79 195 c43 108 80 194 82 192 6 -6 93 -314 93 -329 0 -19 22 -27 76 -27
29 0 44 4 44 13 0 15 -178 678 -183 684 -2 2 -44 -94 -92 -214 -49 -120 -91
-221 -95 -226 -3 -4 -46 91 -94 210 -48 120 -91 221 -95 225 -3 4 -17 -32 -30
-80z"/>
<path d="M4516 388 c1 -189 2 -346 3 -350 0 -5 24 -8 51 -8 l50 0 0 218 1 217
67 -71 c37 -39 110 -118 162 -174 52 -56 120 -129 150 -162 l55 -59 -1 348
c-1 191 -2 350 -3 353 0 3 -23 6 -51 6 -47 0 -50 -2 -51 -26 0 -14 0 -110 0
-215 l1 -190 -83 86 c-75 79 -207 221 -304 327 -21 23 -41 42 -43 42 -3 0 -5
-154 -4 -342z"/>
<path d="M7296 720 c-8 -23 -118 -432 -122 -455 -2 -11 -17 -66 -33 -123 -16
-56 -26 -104 -22 -106 3 -2 24 -3 46 -1 22 2 45 4 52 4 9 1 21 22 28 51 6 23
75 271 81 290 3 8 28 -41 56 -110 27 -69 58 -144 69 -167 10 -24 19 -48 19
-55 1 -19 30 -56 30 -38 0 18 139 361 151 375 6 5 9 3 9 -8 0 -17 89 -329 96
-336 4 -4 114 -12 114 -8 0 1 -7 27 -16 57 -16 60 -70 263 -130 492 -21 81
-42 144 -46 140 -3 -4 -47 -106 -97 -227 l-90 -220 -14 35 c-45 111 -148 360
-161 390 -10 23 -16 30 -20 20z"/>
<path d="M2266 700 c-2 -5 0 -635 3 -656 0 -6 24 -12 55 -13 l53 -1 -1 337 -1
338 -53 0 c-30 1 -55 -2 -56 -5z"/>
<path d="M2879 698 c0 -5 -1 -147 -1 -318 0 -171 1 -319 1 -330 1 -18 9 -19
146 -18 l145 0 0 49 c0 27 -3 50 -7 50 -5 1 -44 2 -88 3 l-80 1 -5 285 -5 285
-52 0 c-29 0 -53 -3 -54 -7z"/>
<path d="M3666 700 c-1 -3 -2 -57 -1 -120 1 -119 -2 -130 -41 -130 -18 0 -21
-5 -19 -42 2 -24 3 -46 4 -50 1 -5 14 -8 29 -8 l28 0 -1 -147 c-1 -82 0 -153
3 -160 3 -8 54 -12 183 -12 l179 0 0 52 0 53 -125 -1 c-69 0 -125 2 -126 5 0
3 -1 51 -2 108 l-2 102 60 1 c33 1 77 0 98 -1 l38 -2 -3 53 -3 52 -92 -1 c-51
0 -93 3 -94 6 -5 41 -2 135 5 139 5 3 62 6 127 6 l119 0 0 51 0 51 -181 0
c-99 0 -182 -2 -183 -5z"/>
<path d="M5590 686 c-1 -41 -1 -592 -1 -622 1 -32 1 -32 56 -33 l55 0 0 337 0
337 -55 1 c-49 0 -55 -2 -55 -20z"/>
<path d="M6203 694 c-2 -7 -3 -124 -1 -261 l3 -250 30 -49 c83 -134 255 -155
365 -45 66 66 70 89 70 373 l0 245 -52 -1 -53 -2 -5 -244 c-5 -266 -8 -277
-63 -310 -41 -25 -83 -25 -124 0 -57 34 -60 51 -61 310 -1 129 -1 238 -1 241
-2 11 -103 4 -108 -7z"/>
</g>
</svg>
